<?xml version="1.0" encoding="utf-8"?>
<!-- Generator: Adobe Illustrator 21.1.0, SVG Export Plug-In . SVG Version: 6.00 Build 0)  -->
<svg version="1.1" id="whistlepig" xmlns="http://www.w3.org/2000/svg" xmlns:xlink="http://www.w3.org/1999/xlink" x="0px" y="0px"
	 viewBox="0 0 544.9 544.9" style="enable-background:new 0 0 544.9 544.9;" xml:space="preserve">
<g id="piggy">
	<g id="body">
		<path d="M181.8,217.3c-0.7-1.9-4.6-2.7-6.3-2.4c-5.2,1-15.3,8-15.6,14.8c-0.4,7.5,6.7,13.2,10.8,15.8c-3.2,17.5,2.2,47.4,4,56.5
			c1.3,7.2,3,14.3,5.2,21.3c-2.2,10.8-4.7,45.5,0.4,107c0.2,2.2,1.7,4.1,3.9,4.6c18.1,4.4,36.6,6.7,55.3,6.6
			c9.6,0,19.1-0.5,28.7-1.6l4-0.4c25-2.7,35.4-3.8,86.9-22.7c1.8-0.7,3.2-2.2,3.9-4c1.8-4.5,0.6-13.7-1.5-18.3
			c-1.3-2.7-2.8-5.1-4.7-7.4c-1.8-2-3-4.6-3.3-7.3c-0.4-2.1-0.6-5.4-0.9-8.9c-0.2-4.5-0.8-8.9-1.6-13.3c-0.8-3.2-2.9-7.1-5-10.8
			c-1.4-2.3-2.6-4.7-3.6-7.1c-1.3-4.3-1.9-8.8-1.9-13.4c2.3-1,3.9-3.2,4-5.8c1.3-15.3-4.3-76.4-11.9-102.2
			c4.7-2.9,9.7-6.7,10.8-10.6c1.2-4.1-1.3-12.3-6.3-14c-0.7-0.2-1.5-0.4-2.2-0.4c-5.9,0-11.1,7.3-12.2,10.2
			c-0.6,1.9-0.8,3.8-0.7,5.8c-14.2-4.6-36.7-7-54.4-7c-7.6-0.1-15.2,0.3-22.7,1.4c-26.3,4.3-59.1,17.1-61.1,18.1
			c-1.2,0.6-1.6,0.2-1.5-0.8C182.3,219.9,182.2,218.5,181.8,217.3z M330.1,206.3c0.7-1.4,2.8-5.1,4.3-4.7c1,0.3,1.3,2.8,1.1,3.6
			c-0.5,2-4.7,4.9-5.5,4.7C328.9,209.7,329.8,207.2,330.1,206.3L330.1,206.3z M355.6,409.1c-50,18.3-60.1,19.4-84.3,22l-4,0.4
			c-28,3.1-53.9,1.6-79.1-4.3c-4.9-60.6-2.2-95.9-0.1-103.5c0.2-0.6,0.1-1.3-0.1-1.9c-1.6-4.2-3.6-12.4-5.4-21.4
			c-3.9-19.8-6.8-45.1-3.1-56.6c0.5-1.5-0.3-3.2-1.7-3.8c-3.1-1.3-10-6.3-9.8-9.9c0.1-1.9,4.5-8.2,6.4-6.6c1.5,1.3,1.4,4.3,2.2,5.3
			c2.4,3.4,8.5,1.1,10.3,0.4h0.1c0.3-0.1,32.6-12.9,59-17.3c22.5-3.7,68.5-1.4,78.3,7c4.9,4.3,13.1,82.9,12.2,99.7
			c-3.7,0.6-4.2,3.2-4.2,4.8v1.4c0.2,6,0.3,10.7,2.3,17.3c1.1,3,2.6,6,4.2,8.8c1.7,3.1,3.6,6.6,4.2,8.7c0.7,4,1.2,8,1.4,12
			c0.3,3.7,0.6,7.3,1,9.7c0.5,4.1,2.3,7.9,5,11c1.5,1.8,2.7,3.7,3.7,5.8C355.6,401.1,356.1,407.2,355.6,409.1L355.6,409.1z"/>
		<path id="arm" d="M188.2,322.3c3.5,14.3,5.6,20.4,6.4,27c0.5,4.1,1.5,12.7-1.6,16.5c-0.6,0.7-1.5,1-2.4,0.7
			c-0.9-0.3-1.4-1.2-1.4-2.1c0-2.5-1.1-7-2-10.7c-0.3-1.1-0.6-2.2-0.8-3.3c-1.1-4.7-3.2-13.6-4.6-19.7c-1.6-6.7-1.6-6.8-1.6-6.9
			c-0.2-1.4,0.1-2.8,0.9-3.9c0.8-1.1,1.3-2.4,2.6-2.1C185.9,318.5,187.5,320.2,188.2,322.3z"/>
	</g>
	<g id="paws">
		<g id="leftpaw">
			<path d="M226.3,404.3c-4.4-5.1-11.1-6.1-19.5-6.1c-7.7,0-14.4,1.7-19,6.5c-5.6,5.9-7.2,13.3-6.9,25.3c0.1,2,1.5,3.8,3.4,4.3
				c15.6,3.6,20.6,4.5,43.2,6.7l0,0h0.4c2.3,0,4.2-1.7,4.4-4C233.8,425.8,234,413,226.3,404.3z M206.9,405.9
				c6.2,0,10.9,0.1,13.9,3.5c5.1,5.8,5.5,14.8,4.6,23.7c-18.7-1.9-24-2.8-37-5.7c0-6.5,0.2-12.5,4.8-17.4
				C196.3,406.7,201.3,405.8,206.9,405.9L206.9,405.9z"/>
			<path d="M199.3,431.5c0,0-2.3-10.1,0-11.8c1.2-0.9,5.8,0.5,5.5,1.9c-0.6,3.4,0,10.9,0,10.9L199.3,431.5z"/>
			<path d="M212.8,434.2c0,0-1.8-9.6,0-11.9c0.8-1,3.9-1.9,4.2,1.3c0.2,1.6,1.3,8.9,1.3,8.9L212.8,434.2z"/>
		</g>
		<g id="rightpaw">
			<path d="M363.5,409.5c-0.4-7.6-1.5-27.6-20.4-27.6c-4.9,0.2-9.6,1.2-14.1,3c-13.1,4.9-17.1,12.9-18.1,18.7
				c-2,10.9,4.6,20.2,8.3,23.6c0.8,0.7,1.8,1.1,2.9,1.1c0.4,0,0.8-0.1,1.2-0.2c19-5.3,24.3-7.1,37.6-13c1.7-0.8,2.8-2.5,2.7-4.4
				L363.5,409.5z M356,409c-11.1,4.9-16.7,6.8-33,11.3c-2.8-3.2-6-9.2-4.8-15.4c1-5.6,5.5-10,13.4-13c3.7-1.5,7.6-2.4,11.5-2.5
				c2.3-0.1,4.7,0.5,6.6,1.8C355,394.7,355.8,403.3,356,409z"/>
			<path d="M334.8,419.3c-1.7-3.9-3-8-4-12.1c-0.1-1.5,3.4-2.1,5.8-0.5c2.2,1.5,3.6,10,3.6,10S335.3,420.7,334.8,419.3z"/>
			<path d="M344.1,415.8c-0.2-2.3-2.1-8-2.5-9.6s5-2.4,6.4-1.5c1.8,1,1.2,6.8,2.5,8.1C348.4,415,345.7,416.6,344.1,415.8z"/>
		</g>
	</g>
	<g id="face">
		<path id="mouth" d="M341.5,288.9c-0.9-0.8-2-1.2-3.2-1.1c-0.4,0-36.3,2.2-48.1,2.5c-3.7,0.1-8.7,0.1-14,0.2
			c-11,0.1-23.4,0.2-31,0.8c-5,0.4-12.1,1.4-19.7,2.5c-8.4,1.2-17,2.4-22.5,2.8c-5.3,0.3-21.2,0-23.1,0h-0.1c-2.4,0-4.4,2-4.4,4.4
			c0,1.2,0.4,2.3,1.2,3.2c0.8,0.9,1.9,1.4,3.1,1.4c0.3,0,7.9,0.2,14.8,0.2c4.1,0,7.2-0.1,9-0.2c5.9-0.4,14.8-1.6,23.3-2.9
			c7.4-1.1,14.3-2.1,19.1-2.5c7.3-0.6,19.5-0.7,30.4-0.8c5.1,0,10.3-0.1,14.1-0.2c11.9-0.3,48-2.5,48.4-2.5c2.5-0.2,4.3-2.3,4.1-4.8
			C342.9,290.8,342.4,289.7,341.5,288.9z"/>
		<path id="lefttooth" d="M279.8,352.8c-4.1-11.4-11.8-39.8-9.5-54.7c0.3-1.7-0.2-3.5-1.3-4.8c-1.1-1.3-2.7-2.1-4.4-2.1
			c-10,0-19.9,0.6-29.8,1.8c-2.6,0.4-4.7,2.5-5,5.1c-1.5,11.2-5.8,48.4,2.2,59.1c0.5,0.7,1.2,1.3,1.9,1.7c7,3.7,20.7,4,24.7,4l0,0
			c5,0,14-0.3,18.4-2.6C279.5,358.7,280.8,355.6,279.8,352.8z M236.9,300.3c8.6-1,17.2-1.5,25.8-1.5c-1.8,17.1,5.9,44.6,9.5,55.2
			c-2.7,0.8-7.9,1.3-13.8,1.3c-9,0-17.2-1.2-20.9-3C233,345.2,234.6,317.9,236.9,300.3z"/>
		<path id="righttooth" d="M303.6,331.2c-9-12.6-9.7-33.6-9.7-33.8c0-3-2.3-5.5-5.3-5.8c0,0-4.9-0.5-9.9-0.5
			c-8.3,0-11.2,1.4-12.9,2.7c-1.1,0.9-1.9,2.1-2.1,3.5c-2.6,12.5,4.7,41.5,6.2,47.2c0.7,2.6,3,4.4,5.6,4.4c0.5,0,0.9-0.1,1.4-0.2
			c1.8-0.4,18-4.5,25-9c1.4-0.9,2.3-2.3,2.6-3.9C304.9,334.2,304.5,332.5,303.6,331.2z M270.8,299.6c0.8-0.4,2.9-0.9,7.9-0.9
			c3.1,0,6.1,0.2,7.8,0.3c0.3,5.1,1.8,22.5,10,35.1c-5,2.6-14.3,5.4-19.9,6.8C273.8,329.6,269.4,308.6,270.8,299.6z"/>
		<path id="lefteye" d="M245.6,265.3c-2.3,1.5-9.2,1.6-11.8-0.6c-8.5-7.3-1.2-18.9,6.2-18.9C251.4,245.7,253.6,260.2,245.6,265.3z
			 M238.3,261.5c2.1,1.7,4.5-3.1,4.7-5c0.1-1.9-1.5-7-2.8-6.4C237.6,251.5,236.7,260.2,238.3,261.5L238.3,261.5z"/>
		<path id="righteye" d="M286.3,261c-2.6,1.7-10.4,1.8-13.4-0.7c-9.6-8.2-1.4-21.4,7.1-21.4C292.8,238.8,295.4,255.2,286.3,261z
			 M278,256.6c2.4,1.9,5.1-3.6,5.3-5.7s-1.7-8-3.2-7.2C277.2,245.3,276.2,255.2,278,256.6L278,256.6z"/>
	</g>
	<g id="whiskers">
		<path d="M362.5,267.9c-3.4,0.9-1.5-6.3,0.4-7c2.5-0.8,18.1-0.7,21-0.2c3.9,0.6,2.8,3.2,1.6,3.2C376.8,263.9,369.9,266,362.5,267.9
			z"/>
		<path d="M391.3,278c-4.5-0.5-15.5,0.1-19.3,0.3c-2.5,0.1-5.1,1-5.3-1c-0.2-2.2,1.3-5.8,3.5-5.9c4.5-0.2,18,2,22.6,4.8
			C394.2,277.1,391.8,278,391.3,278z"/>
		<path d="M382.4,288.6c2,0.7,0.5,2.3-2.1,2.4c-3.2,0.1-12.8,1.3-17.5,0.7c-1.6-0.2-1.4-5.2,0.5-5.4
			C365.4,286.2,376.6,286.6,382.4,288.6z"/>
		<path d="M160.9,292.3c-3.2-0.3-16-0.2-25.5,3.8c-0.8,0.3-3.4-1-2.8-1.6c4.5-4.5,24.9-10.4,28.1-9.6
			C161.3,285.2,162.6,292.5,160.9,292.3z"/>
		<path d="M155.5,319.8c-5,1.1-11.1,5.4-17.8,8.6c-0.8,0.4-1.2-0.9-1-1.5c1.2-4.1,8.9-12,15.8-12.6
			C154.8,314.1,158.9,319.1,155.5,319.8z"/>
		<path d="M151.8,309.2c-5.6,0.1-19.1,1.6-30.1,6.6c-1.1,0.5-1.4-2.2-0.6-3.1c5.5-6.2,19.4-10.3,27.3-9.3
			C150.9,303.7,154.6,309.2,151.8,309.2z"/>
	</g>
	<path id="nose" d="M273.2,271.9c-1.6-5-19.1-1.5-20.4,3.6c-0.9,3.6,7.8,9.3,11.3,9.1C268,284.5,273.2,271.9,273.2,271.9z"/>
</g>
<path id="inner-ring" d="M236.8,441.8c-39.5,0-68.5-10.9-85.9-20c-27-14.2-47.2-34.9-55.4-56.7c-18.6-49.3-6.9-115.6,8.8-144.5
	c11.6-21.4,37.3-53,62.3-69.6c11-7.3,28.1-13.8,50.9-19.6c19.6-12.5,36.3-19.6,49.6-20.9c9.7-0.9,18.1-1.4,26-1.4
	c43,0,73.1,14.9,100.4,49.7c30.5,38.9,60.5,123.1,31.9,188.6s-83.5,84-162.9,93C254,441.4,245.5,441.9,236.8,441.8L236.8,441.8z
	 M190.8,150.7c-6.5,2.4-12.7,5.4-18.6,9.1c-23.6,15.6-48,45.6-58.9,65.9c-14.7,27.1-25.7,89.3-8.2,135.6c10.6,28.2,54.4,70,131.3,70
	c8.3,0,16.6-0.5,24.9-1.4c75.8-8.5,128.1-26,154.7-86.8c26.9-61.5-1.7-140.9-30.5-177.7c-25.5-32.5-52.1-45.8-91.9-45.8
	c-7.5,0-15.9,0.5-25.5,1.4c-5.8,0.7-11.4,2.2-16.8,4.4h0.3c1.8,0,3.3,0.1,4.8,0.2c1.5,0.1,2.8,0.1,4.3,0.1h1.4
	c5.7,0,11.4,1.1,16.7,3.4c1,0.4,1.5,1.5,1.3,2.6c-0.2,1-1.1,1.6-2.1,1.6H278c-2.3-0.3-4.6-0.4-6.8-0.4c-3.1,0-6.3,0.2-9.4,0.6
	c-10.9,1.3-19.6,2.8-40,7.8c-25.1,16.3-34.1,23.2-44.8,32.6c-3.7,3.3-9.8,9.2-9.8,9.2c-0.7,0.7-1.9,0.8-2.7,0.2
	c-0.8-0.6-1.1-1.8-0.6-2.7c0.9-1.8,2-3.6,3.2-5.3C173.1,167,179.2,160.1,190.8,150.7L190.8,150.7z"/>
<path id="outer-ring" d="M352.6,511.1c-9.8,0.9-18,7.2-27.2,11.2c-16.7,7.4-31,11.5-48.6,17c-11.9,3.7-16.1,5.8-27.9,3.7
	c-3.3-0.6-6-2.8-9.5-3c-6.3-0.2-11.3,5.5-15.8,4.8c-13.3-2-30.2-4.5-42.2-9.8c-3.4-1.5-3.9-6.1-7.8-7.6c-6.2-2.3-6.6,0-11.9-0.6
	c-10.8-1.2-15.6-2.3-22.3-11.2c-5.5-7.2-5.9-12.9-15.4-17.5c-6.8-3.3-14-2.2-20.9-4.6c-7.5-2.6-10.5-5.8-14.6-11.9
	c-2.2-3.3-2.2-7.8-5.2-11c-4.2-4.5-11.4-4.9-15.3-9.6s-3.8-11.6-8.2-15.6c-5.4-5-12.6-4.1-18.2-9.7c-10.3-10.5-8.9-26.9-17.6-37.7
	c-4.2-5.3-10.4-4.3-14.4-8.2c-3.3-3.3-4.6-15.2-5.1-19.1c-1.1-10,2.3-14.4,4-23.6c1.6-9-2.5-16.5-2.8-25.3
	c-0.3-9.4,1.3-22.7-0.9-32.7c-1.7-7.8-5.1-16.8-5-24.8c0.2-14.9,11.5-28.3,13.4-43.1c1.1-8.3-0.8-15.5,1.2-23.9
	c2.3-9.6,5.5-19.3,8-28.9c3.5-13.8,11.9-27,18.8-40.1c2.5-4.8,5.8-5.3,6.9-11.7c0.8-4.4-0.7-9.2,0.7-13c0.7-2,4.5-2.6,5.3-4.9
	c1.2-3.6,1.4-8.9,2.5-12c1.8-5.2,6-16.4,10.3-19.8c4.5-3.6,12.7-6.9,17.6-10.2c-8.5,5.7,4.1-6,2.6-4.8c1.6-1.3,9.6-5,12.2-6.6
	c12-7.5,23.4-16.7,38.6-14.2c7.1,1.2,10.7,4.4,18.3,2.9c4.4-0.9,4.7-6.3,7.9-7.1c3.9-1,6.7,0.3,10.4,0c14.5-1.1,30.8-2.8,44.5-8.8
	c17.6-7.7,30-8.5,47.7-14.2c11.4-3.7,15.8-5.7,26.9-2.2c11.9,3.8,10.9,2,22.9,1.6c9.5-0.3,13.5,8.5,20.1,9.3
	c4.8,0.5,4.9-2.8,10.4-4.5c7.1-2.2,19.6-1.6,27.6,0.3c9.7,2.3,12.3,9,20.8,12.1c5.9,2.2,11.8-2.3,17.5,0c4.1,1.7,9.8,9.1,12.5,12.2
	c11.3,12.9,19.1,27.4,33,38.5c11.6,9.3,22.6,19.3,34.1,28.8c11.2,9.3,13.4,19.9,24.5,28.6c23.2,18.3,23.5,53.2,23.2,79.7
	c-0.1,6.7-3,10.7-3.4,17.5c-0.4,7.4,4.6,10.5,6.5,16.8c4.6,15.8-3.5,25.1-2.5,39.8c0.7,9.9,2.3,15.9,0.2,26
	c-1.5,7.4-3.9,14.5-7.2,21.2c-1.6,3.3-4.9,4.3-6.3,8.2c-1.2,3.3,0.4,7-0.7,9.9c-2.4,7-6.5,13.4-12,18.4
	c-5.5,5.2-11.5,10.1-14.5,17.1c-2.5,6,3.1,10.9-0.6,16.4c-1.9,2.8-7.3,2.8-9.8,5c-3.9,3.4-5.8,9.8-9.4,12.6
	c-3,2.3-11.6,3.5-13.2,5.2c-6,6-1.5,9-5,16c-1.6,3.2-5.8,3.4-7.9,6c-2.5,3-3.5,8-6.3,10.6c-4.9,4.8-12.7,5.6-17.8,10
	c-3.5,2.9-3.8,6.3-6.6,8.7c-2.2,2-7.1,3.8-10,6c-12.5,9.6-25.7,13.5-38.4,23.3c-2.7,2-5.8,5.6-9.1,6.4S356.1,510.7,352.6,511.1z
	 M288.1,18.1c-29.1,0-51.9,11.7-79.9,18.3c-26.5,6.2-55.5,4-81.1,12.8C70.2,68.6,61.4,125,42.4,172.6
	C23.2,220.7,24.9,275,21.8,324.9c-3.6,57.5,29.6,99.7,72.2,138.5c39.4,35.8,88.4,64.5,144.9,64.5c54.3,0,109.8-23.5,155.2-49.6
	c25.2-14.5,43.6-34.4,62.7-55.3c18.5-20.2,33.4-40.9,48.6-63.4c29.3-43.5,25-112.2,19.3-162.8c-2.9-25.5-11.7-49.9-28.3-70
	c-16.2-19.8-40.7-30.5-56.7-50.3c-18.4-22.6-29.3-37-59.2-46C351.1,21.8,318.9,18.1,288.1,18.1L288.1,18.1z"/>
<g id="words">
	<g id="wood_shop">
		<path d="M127.1,416.8c-5,0.5-11.3,10.9-20.3,18.9c-6-27.6-7.7-28.7-27.2-17.5c0.7-2.2,1.3-4.4,1.8-6.7c1.1-8.2,5.6-17.6,5.6-24
			c0-1.8-3.1-5-5.1-5c-2.4,0-3.8,2.8-4.2,4.5c-3,12.5-5.8,25.1-8.1,37.8c-0.5,2.8-1.1,7.4,1.4,9s5.7-1.1,8.1-2.5
			c4.9-3,13.5-12.1,15.4-10.9c1.5,0.9,2,15.4,3.2,21.9c0.5,2.6,1.7,6.8,3.3,7.1c2.5,0.5,6.1-0.8,8.1-2.7
			c6.9-6.1,13.1-13.1,20.1-19.2c3.9-3.4,3.4-3,3.4-5C132.4,419.6,129.1,416.6,127.1,416.8z"/>
		<path d="M421.4,441.9c1.2,1.9,3,5,1.6,6.9s-6.2,2.2-8.6-0.7c-4.3-5.3-10.1-17-12.4-16.5c-3.4,0.7-14.4,9.6-21.1,15.2
			c-1.1,0.9,4.7,7.4,6.7,9.4c1.5,1.4,5,4.3,5.8,6s0.6,4.3-0.6,5.4c-1.5,1.3-6,1.8-7.8,0.6c-3.7-2.4-6.8-5.5-9.3-9.1
			c-5.4-7.6-10.3-15.4-14.8-23.5c-1.3-2.4-2-5.7-1.4-7.9c0.8-2.7,4.4-3.4,5.4-3.1c2.3,0.5,4.9,4.5,5.8,6.5c0.8,1.6,3.2,6.8,3.9,6.4
			c2.8-1.5,21.6-10.8,22.5-14.7c0.6-2.9-7.4-13-7-16s10.3-3.2,13.6,4.1c1.7,3.8,3.6,7.4,5.6,11C412.8,427.1,418.1,436.4,421.4,441.9
			z"/>
		<path d="M217.2,462.3c-1-3.7,5.6-11.4,11.5-4.9c1.6,1.8,5.5,1,8.2,0.9c14.7-0.6,23,7.5,22.8,22.6c-0.2,13.4-9.7,26.6-21.3,28.8
			c-5.2,0.9-10.6,0.9-15.8,0.1c-5.4-0.8-8.1-6.9-7.3-13.9c0.9-7.3,2-14.6,2.1-22C217.4,470.9,217.8,464.9,217.2,462.3z M225.3,488.3
			c-0.1,1.8-0.2,3.5-0.3,5.3c-0.1,7.6,2.8,10,9.8,8.5c8.4-1.9,12.8-7.9,14.9-15.8c3.3-12.5-3.8-20.5-16.3-18.6
			c-4.2,0.6-6.9,1.6-6.9,7.4C226.5,478.4,225.6,485,225.3,488.3L225.3,488.3z"/>
		<path d="M466.3,363.8c-0.5,1.5-0.2,4.2,0.9,5.1c4.8,4.4,3.7,1.8,8.6,6.2c1.8,1.6,3.7,4.2,3.6,6.3c0,1.8-2.4,4.5-4.3,5.1
			c-1.6,0.5-4.3-0.9-5.9-2.3c-7.8-7-11.2-10.3-19.2-17c-6.4-5.4-9.9-11-7.5-19.9c2.3-8.4,3.3-17.3,10.2-23.1
			c2.9-2.4,7.7-4.6,10.8-3.7c2.6,0.7,7.3,6.6,8,8.6c0.8,2.8,1.2,5.8,1.2,8.8C472.4,344.5,468.2,357.4,466.3,363.8z M458.7,329.6
			c-5.3,2.8-8.9,15.7-8,20.9c0.5,2.7,6.6,8.8,8.3,9.5c2.2,0.9,7.5-17.5,7.1-23C465.8,333.3,460.2,328.8,458.7,329.6z"/>
		<path d="M440.3,377.9c6.1,1.7,14.8,8.8,18,18.1c1.9,5.6-4.7,18.7-11.1,22.6c-2.8,1.7-5.5,3.9-8.6,4.6c-8,1.7-15.6-4-17.5-12.8
			c-2.3-11.2-5.3-23.8,3.9-30.2C428.3,378,436.6,376.9,440.3,377.9z M427,400.6c-0.4,6,4.1,12.3,7.7,12.9c2.6,0.4,6.7-2.7,9.5-5
			c7.1-6,6.4-14.4-1.4-19.1c-2-1.1-4.3-1.5-6.6-1C432.7,389.6,427.4,394.7,427,400.6z"/>
		<path d="M176.1,504.6c-3-0.5-6.1-4.3-7.8-9.4c-4.8-13.8,0.3-31,7.3-37.1c4.8-4.2,19-7.5,24.9-5c1.5,0.6,3.4,3.6,3.9,5.2
			c2.6,8.3,3,24.3-5,34.6C194.4,499,182.5,505.7,176.1,504.6z M198.1,468.4c-0.8-3-2.9-6.6-5-7.1c-3.3-0.8-10.9,3.8-13,6.9
			c-2.7,4-3.5,12.3-4.2,18.9c-0.7,6.9,2.8,8.7,9,6C195.4,488.4,200.8,479.1,198.1,468.4L198.1,468.4z"/>
		<path d="M354.6,468.5c-2.7-1.7-12.1,0.7-18.2,1c-5.5,0.3-11.9,1.8-14.1-5.6c-0.8-2.8-0.7-7.3,0.9-9.2c5.3-6,11-11.4,17.3-16.3
			c1.7-1.4,6.4-2.6,8-0.4c1.3,1.9-0.9,4.9-2.3,6.4c-4.7,4.8-15.8,13.9-14.3,15.1c1.7,1.4,8.9-1,13.4-1c4.1,0,8.4-0.2,12.2,1.1
			c8,2.7,9.5,15.2,1.9,20.7c-6.6,4.8-14.5,7.9-22,11.4c-1.4,0.7-4.4,1.1-5.4-0.5s0.7-4.7,2-5.6c4.7-3.5,9.8-6.3,14.7-9.5
			c2.3-1.5,5.6-2.3,6.5-4.9C355.6,470.2,355.3,469.2,354.6,468.5z"/>
		<path d="M126.5,464.4c1.3-13.8,7-26.2,18.6-31.4c3-1.3,6.1,1.1,7.3,2.6c3,3.8,7.1,16,7.9,21.7c0.6,4.1,0,11.3-5.7,15.5
			c-5.2,3.7-10.2,6.9-16.6,5.9C130.5,477.6,126.5,472.1,126.5,464.4z M147.1,445.9c-0.6-0.6-1.5-0.8-2.3-0.5
			c-4.7,2-5.9,8.7-7.7,13.5c-1,2.7-0.8,7.7,0.9,9c1.9,1.4,6.6,0.8,8.9-0.8s4.8-5.6,4.6-8.3C151.2,454.4,150.5,448.9,147.1,445.9z"/>
	</g>
	<g id="whistle_pig">
		<path d="M337.4,80.4c0.3,0,0.6,0.2,0.8,0.5c1.6,4.7-1.2,8.7-5.6,9.8c-7.3,1.8-15,2.1-22.5,2.4c-1.8,0.1-4.5-2.1-5.5-4
			c-4.2-7.8-4.7-15.2-4.8-20.5c-0.1-3.7,0-11.3,0.1-14.7c0.3-6,0.4-11.9,1.2-17.8c0.2-1.2,2.9-2.8,4.1-2.8c1.4,0,3.1,1.3,3.7,4.4
			c0.1,0.9,0.1,1.8,0,2.7c-0.1,0.4,0.2,0.7,0.6,0.8c0,0,0.1,0,0.1,0c8.8-0.7,20.5-1.2,28.9-1.2c2.3-0.2,4.3,1.5,4.5,3.8
			c0.3,2.9-2,4.1-3.7,4.5c-6.6,1.6-13.2,2.7-19.9,3.7c-10.9,1.6-11.9,4.3-10.2,11.7c0.9,4.1,24.7-3.4,27.9-2.8
			c2.3,0.4,2.3,8.7-2.5,10.4c-7.4,2.6-15.2,3.7-24.1,5.7c-0.3,0.1-0.5,0.3-0.5,0.6c-0.3,3,2.5,5.2,6.7,5
			C323.2,82.4,329.9,81.3,337.4,80.4z"/>
		<path d="M479.5,185.9c-3-3,2-8.1-2.7-12.4c-3.3-3.1-23.5-1.4-30.2,7.7c-4.2,5.7-4.6,17.7-0.6,22.8c5.6,7.2,22.1,10.6,32.6,6
			c-5-2.1-9.6-3.4-13.3-5.9c-2.5-1.8-5.9-6.3-5.2-8.1c1.7-4.4,5.7-1.6,8.9-0.5c5.5,1.9,11.1,3.5,16.6,5.3c1.2,0.4,2.7,1.1,3.3,2.2
			c2.5,4.9-3.6,15.5-9.1,16.1c-8.7,0.9-17.5,0.5-26-1.4c-15.5-3-22.5-22-17.4-34.3c8.8-20.8,26.8-24.7,43.6-18.7
			c3.3,1.2,7.5,4.1,8.3,7.1C490.2,178.5,481.9,188.3,479.5,185.9z"/>
		<path d="M401.4,131.7c-1.4,3.3-2.2,6.3-6.2,4.7s-4.1-4.9-2.5-8.4c3.6-7.6,7.2-15.2,11-22.8c3.1-6.1,6.5-12,9.7-18.1
			c2.3-4.3,5.4-5,9.2-2.5c10.5,6.7,21.8,12.3,30.1,22.2c5.4,6.3-0.4,15.2-4.2,17.5c-4.8,3-16.6,4.4-22.3,4.2
			c-4.6-0.1-14.1-1.6-18.1-3C404.6,124.3,402.5,129.3,401.4,131.7z M410.4,114.6c-0.5,5.3,21.4,4.8,29.3,2.4c3.3-1,7-4.4,3.6-7.7
			c-6.2-5.9-18.4-15.1-22.6-14.1c-2.4,0.6-5.2,6.5-6.4,9S410.6,111.9,410.4,114.6L410.4,114.6z"/>
		<path d="M88.5,141.6c8.7,9.3,12.6,15.3,20.5,6.8c1.8-1.9,3.1-3.3,5.4-5.3c-4.8-7-12.4-18.3-17.2-24.4c-3.1-3.9-1.9-7.1,1.3-8.8
			c2.5-1.3,5.5-1.1,7.7,3.3c3.6,7.1,11.5,15.9,16.1,22.5c0.5,0.7,2.2,3,2.7,3.6c2.4,3,4.9,5.9,7.3,8.8c1.6,2,4.2,4.2,4.3,6.1
			c0.1,1.3-1.9,3.7-3.3,4c-2.2,0.3-4.5-0.1-6.4-1.3c-2.6-1.4-4.8-3.6-7.8-6c-2.5,3.3-10.2,9.1-9.3,11.9c0.5,1.6,5.6,3.4,7.4,5.5
			c1.3,1.6,2.9,4.5,1.8,6.4c-1.4,2.2-6.1,2.1-7.6,1c-6.6-5-13-10.5-19-16.2c-3.2-3-10.1-10.7-12.5-14.4c-0.9-1.5-1.5-4.7-0.1-6.2
			C81.6,136.9,86.9,139.9,88.5,141.6z"/>
		<path d="M68.9,230c-3.5-14.5-1.6-19.5,2.9-23.1c2.8-2.2,10.9-4.7,13.3-5.4c8.1-2.1,0-9-4.1-12.5c-4-3.4-7.9-6.4-11.5-10.1
			c-2-2.1-4.7-6.3-3.1-9.1s6.9-3.2,8.7-1.9c6.4,4.8,18.6,19.6,25.5,28.4c3.3,4.1,1.4,8.1-3,10.8c-4.9,3.1-9.8,4.3-15.8,6.9
			c-5.1,2.2-3.6,7.8-0.7,12.2c2.2,3.2,4.9,8.2,3.9,11.1c-2,5.6-7.4,4.1-12.3,2.7c-7.4-2.1-15-3.4-22.5-5.2c-2.2-0.5-4.2-1.4-6-2.8
			c-1.6-1.6-4-6.3-3.2-8.5c1.2-3.2,4.7-4.4,8.7-2.1C55.5,224.6,61.7,226.8,68.9,230z"/>
		<path d="M219.1,58.6c-1.7,0.6-1.7,3.4-1.8,5.1c-0.3,15.3,9.5,36.3,7.1,39.6c-2,2.6-9.4,6.8-10.9-0.1c-2.4-11.3-4-22.7-6-34
			c-0.3-1.9-0.7-5.2-2.7-5c-4.3,0.4-11.4,4.5-17.7,6.5c-2.1,0.7-4.4-0.4-5.2-2.5c-0.7-1.6,0.4-5.8,1.8-6.7
			c5.4-3.6,22.3-9.1,33.8-12.2c3.8-1,12-4.3,14.2-1.4c0.5,0.7,1.5,5.4-0.5,6.6C229.9,55.3,222,57.5,219.1,58.6z"/>
		<path d="M181.3,108.7c-4.4-1.7-8.8-3.1-13.4-4.4c-2.6-0.6-9.4-1.8-10.5-2.1c-6.1-1.5-10.6-3.7-11-9.6c-0.2-2.8,3.9-7.1,7-9.8
			c3.6-3.2,8.9-5.7,13.1-7.9c2.3-1.2,5.8-1.4,7,0.9c1.1,2-0.8,4.6-2.6,6c-3.4,2.6-13.7,8.2-13.2,11c0.4,2.1,11.3,3.3,15.2,4.1
			s13,3.8,15.5,4.6c3.3,1.1,6.8,2.5,7.4,7.5c0.4,2.9-2.8,6.1-5.2,8.1c-7.3,6.2-16.4,8-25.6,8c-2.5,0-5.4-1.8-5.5-4.2
			c-0.2-2.6,3.3-4.8,5.5-5.4c6-1.8,13-1.6,16.9-3.5C185,110.4,182,109,181.3,108.7z"/>
		<path d="M247.7,44.2c1.9-4.1,11.8-0.3,10.8,9.4c-0.4,5.3-0.2,10.7,0.6,16c1.4,7.6,5.1,14.1,11.8,11.6c4.9-1.8,6.9-2.6,11.8-4.4
			c1.8-0.7,4.6-2.1,6-0.5s0.2,4.5-1.1,5.8c-4.6,4.7-10.7,7.7-17.3,8.6c-12.4,1.8-16.8-1.5-19.2-14.1
			C249.4,67.4,246.9,45.9,247.7,44.2z"/>
		<path d="M463.3,138.7c0,1.4-3.1,4.7-4.8,6.5c-7.4,8-14.8,16.1-22.5,23.8c-2,2-5.5,5.3-7.4,4.2c-3.4-1.9-2.1-6.8,0.1-9.7
			c5.9-7.6,12.3-14.9,18.5-22.3c1.6-2.1,3.3-4,5.2-5.8c1.8-1.5,4.5-3.8,6.1-3.3C460.4,132.8,463.3,137.3,463.3,138.7z"/>
		<path d="M155.1,136.1c-0.1,1.8-1.2,3.3-2.7,4.2c-1.7,0.6-5.8-0.4-7-2c-6.6-8.6-21-30.2-21.9-32.2c-1-2.3,0.1-5.2,1.3-6
			s5.4-0.5,6.6,0.8c3.3,3.8,9,14.1,11.9,18.2c3,4.3,6.3,8.4,9.4,12.7C153.6,133,155.1,134.1,155.1,136.1z"/>
	</g>
</g>
</svg>
